<svg viewBox="0 0 20 20" width="16" height="16" fill="#fff" xmlns="http://www.w3.org/2000/svg" class="aioseo-gear"><path fill-rule="evenodd" clip-rule="evenodd" d="M9.98542 19.9708C15.5002 19.9708 19.9708 15.5002 19.9708 9.98542C19.9708 4.47063 15.5002 0 9.98542 0C4.47063 0 0 4.47063 0 9.98542C0 15.5002 4.47063 19.9708 9.98542 19.9708ZM8.39541 3.65464C8.26016 3.4485 8.0096 3.35211 7.77985 3.43327C7.51816 3.52572 7.26218 3.63445 7.01349 3.7588C6.79519 3.86796 6.68566 4.11731 6.73372 4.36049L6.90493 5.22694C6.949 5.44996 6.858 5.6763 6.68522 5.82009C6.41216 6.04734 6.16007 6.30426 5.93421 6.58864C5.79383 6.76539 5.57233 6.85907 5.35361 6.81489L4.50424 6.6433C4.26564 6.5951 4.02157 6.70788 3.91544 6.93121C3.85549 7.05738 3.79889 7.1862 3.74583 7.31758C3.69276 7.44896 3.64397 7.58105 3.59938 7.71369C3.52048 7.94847 3.61579 8.20398 3.81839 8.34133L4.53958 8.83027C4.72529 8.95617 4.81778 9.1819 4.79534 9.40826C4.75925 9.77244 4.76072 10.136 4.79756 10.4936C4.82087 10.7198 4.72915 10.9459 4.54388 11.0724L3.82408 11.5642C3.62205 11.7022 3.52759 11.9579 3.60713 12.1923C3.69774 12.4593 3.8043 12.7205 3.92615 12.9743C4.03313 13.1971 4.27749 13.3088 4.51581 13.2598L5.36495 13.0851C5.5835 13.0401 5.80533 13.133 5.94623 13.3093C6.16893 13.5879 6.42071 13.8451 6.6994 14.0756C6.87261 14.2188 6.96442 14.4448 6.92112 14.668L6.75296 15.5348C6.70572 15.7782 6.81625 16.0273 7.03511 16.1356C7.15876 16.1967 7.285 16.2545 7.41375 16.3086C7.54251 16.3628 7.67196 16.4126 7.80195 16.4581C8.18224 16.5912 8.71449 16.1147 9.108 15.7625C9.30205 15.5888 9.42174 15.343 9.42301 15.0798C9.42301 15.0784 9.42302 15.077 9.42302 15.0756L9.42301 13.6263C9.42301 13.6109 9.4236 13.5957 9.42476 13.5806C8.26248 13.2971 7.39838 12.2301 7.39838 10.9572V9.41823C7.39838 9.30125 7.49131 9.20642 7.60596 9.20642H8.32584V7.6922C8.32584 7.48312 8.49193 7.31364 8.69683 7.31364C8.90171 7.31364 9.06781 7.48312 9.06781 7.6922V9.20642H11.0155V7.6922C11.0155 7.48312 11.1816 7.31364 11.3865 7.31364C11.5914 7.31364 11.7575 7.48312 11.7575 7.6922V9.20642H12.4773C12.592 9.20642 12.6849 9.30125 12.6849 9.41823V10.9572C12.6849 12.2704 11.7653 13.3643 10.5474 13.6051C10.5477 13.6121 10.5478 13.6192 10.5478 13.6263L10.5478 15.0694C10.5478 15.3377 10.6711 15.5879 10.871 15.7622C11.2715 16.1115 11.8129 16.5837 12.191 16.4502C12.4527 16.3577 12.7086 16.249 12.9573 16.1246C13.1756 16.0155 13.2852 15.7661 13.2371 15.5229L13.0659 14.6565C13.0218 14.4334 13.1128 14.2071 13.2856 14.0633C13.5587 13.8361 13.8107 13.5792 14.0366 13.2948C14.177 13.118 14.3985 13.0244 14.6172 13.0685L15.4666 13.2401C15.7052 13.2883 15.9493 13.1756 16.0554 12.9522C16.1153 12.8261 16.1719 12.6972 16.225 12.5659C16.2781 12.4345 16.3269 12.3024 16.3714 12.1698C16.4503 11.935 16.355 11.6795 16.1524 11.5421L15.4312 11.0532C15.2455 10.9273 15.153 10.7015 15.1755 10.4752C15.2116 10.111 15.2101 9.74744 15.1733 9.38986C15.1499 9.16361 15.2417 8.93757 15.4269 8.811L16.1467 8.31927C16.3488 8.18126 16.4432 7.92558 16.3637 7.69115C16.2731 7.42411 16.1665 7.16292 16.0447 6.90915C15.9377 6.68638 15.6933 6.57462 15.455 6.62366L14.6059 6.79837C14.3873 6.84334 14.1655 6.75048 14.0246 6.57418C13.8019 6.29554 13.5501 6.03832 13.2714 5.80784C13.0982 5.6646 13.0064 5.43858 13.0497 5.2154L13.2179 4.34868C13.2651 4.10521 13.1546 3.85616 12.9357 3.74787C12.8121 3.68669 12.6858 3.62895 12.5571 3.5748C12.4283 3.52065 12.2989 3.47086 12.1689 3.42537C11.9388 3.34485 11.6884 3.44211 11.5538 3.64884L11.0746 4.38475C10.9513 4.57425 10.73 4.66862 10.5082 4.64573C10.1513 4.6089 9.79502 4.61039 9.44459 4.64799C9.22286 4.67177 9.00134 4.57818 8.87731 4.38913L8.39541 3.65464Z" fill="#fff" /></svg>